<?xml version="1.0" encoding="utf-8"?>
<!-- Generator: Adobe Illustrator 16.0.3, SVG Export Plug-In . SVG Version: 6.00 Build 0)  -->
<svg version="1.1" xmlns="http://www.w3.org/2000/svg" xmlns:xlink="http://www.w3.org/1999/xlink" x="0px" y="0px"
	 width="474px" height="604px" viewBox="0 0 474 604" enable-background="new 0 0 474 604" xml:space="preserve">
<path fill="#0182CC" stroke="#000" stroke-width="4" d="M2,367c0,129.78,105.212,235,235,235c129.786,0,235-105.22,235-235V2H2
	V367z"/>
<path d="M404.191,189.216l6.582,225.24h7.844v39.614h-53.943v-39.614h3.947C369.48,331.125,316.212,256.857,237,230.954
	c-79.211,25.903-132.482,100.171-131.621,183.502h3.948v39.614H55.383v-39.614h7.843l6.581-225.24h-7.818l-3.753-14.223h12.666
	v-53.892H60.339V81.489h21.775v19.102h14.099V81.489h21.775v19.102h14.099V81.489h21.775v39.613H143.3v53.892h14.904v-25.515h21.775
	v25.515h17.972V89.531h-9.601V49.919h23.107v19.103h14.654V49.919h21.775v19.103h14.653V49.919h23.107v39.613h-9.601v85.461h17.972
	v-25.515h21.774v25.515h14.903v-53.892h-10.562V81.489h21.774v19.102h14.1V81.489h21.773v19.102h14.101V81.489h21.774v39.613
	h-10.563v53.892h12.666l-3.753,14.223L404.191,189.216l7.818,0.001L404.191,189.216L404.191,189.216z"/>
<path fill="#FD0" d="M161.979,175.516h14.224v-21.741h-14.224V175.516z M105.213,175.516v-13.042h-4.543v-12.017H74.677v25.06
	L105.213,175.516L105.213,175.516z M139.525,146.682v-25.06H74.677v25.06h25.993V130.89h12.862v15.792H139.525z M139.525,150.458
	h-25.993v12.017h-4.543v13.042h30.536V150.458z M59.158,450.817h46.393v-32.063H59.158V450.817z M312.02,175.516h-14.226v-21.741
	h14.226V175.516z M368.786,175.516v-13.042h4.544v-12.017h25.992v25.06L368.786,175.516L368.786,175.516z M334.475,146.682v-25.06
	h64.848v25.06H373.33V130.89h-12.862v15.792H334.475L334.475,146.682z M334.475,150.458h25.992v12.017h4.543v13.042h-30.535V150.458
	L334.475,150.458z M414.841,450.817h-46.394v-32.063h46.394V450.817z M95.591,189.739h50.411v21.284H95.591V189.739L95.591,189.739z
	 M122.708,214.798h54.55v25.138h-54.55V214.798L122.708,214.798z M149.777,189.739h52.969v21.284h-52.969V189.739L149.777,189.739z
	 M95.591,243.71h50.411v24.628H95.591V243.71z M324.223,189.739h-52.971v21.284h52.971V189.739L324.223,189.739z M206.522,211.023
	h60.955v-21.284h-60.955V211.023L206.522,211.023z M73.584,189.739h18.232v21.284H72.962L73.584,189.739L73.584,189.739z
	 M72.852,214.798h46.081v25.138H72.117L72.852,214.798L72.852,214.798z M72.007,243.71h19.81v24.628H71.288L72.007,243.71z
	 M71.177,272.114h47.755v26.08H70.415L71.177,272.114L71.177,272.114z M70.305,301.969h21.512v24.632H69.585L70.305,301.969z
	 M69.475,330.377h39.765c-3.741,8.47-6.902,17.184-9.461,26.083H68.713L69.475,330.377L69.475,330.377z M68.603,360.233h23.214
	v24.048H67.9L68.603,360.233z M67.79,388.056h25.544c-1.098,8.931-1.604,17.924-1.518,26.921H67.003L67.79,388.056z M95.591,301.969
	h28.977c-5.099,7.889-9.648,16.119-13.616,24.632H95.591V301.969z M122.708,272.114h23.295v2.207
	c-6.896,7.476-13.226,15.456-18.934,23.874h-4.361V272.114z M149.777,243.71h31.78c-10.691,7.25-20.673,15.497-29.809,24.628h-1.971
	V243.71L149.777,243.71z M95.591,360.233h3.14l-3.14,13.605V360.233z M378.408,189.739h-50.411v21.284h50.411V189.739
	L378.408,189.739z M351.292,214.798h-54.55v25.138h54.55V214.798z M378.408,243.71h-50.411v24.628h50.411V243.71z M400.415,189.739
	h-18.231v21.284h18.854L400.415,189.739L400.415,189.739z M401.146,214.798h-46.08v25.138h46.814L401.146,214.798z M401.992,243.71
	h-19.809v24.628h20.527L401.992,243.71z M402.822,272.114h-47.756v26.08h48.518L402.822,272.114L402.822,272.114z M403.693,301.969
	h-21.51v24.632h22.229L403.693,301.969L403.693,301.969z M404.523,330.377H364.76c3.739,8.47,6.901,17.184,9.461,26.083h31.064
	L404.523,330.377L404.523,330.377z M405.396,360.233h-23.213v24.048H406.1L405.396,360.233L405.396,360.233z M378.408,301.969
	H349.43c5.1,7.889,9.648,16.119,13.616,24.632h15.361L378.408,301.969L378.408,301.969z M351.292,272.114h-23.295v2.207
	c6.896,7.476,13.226,15.456,18.935,23.874h4.36V272.114L351.292,272.114z M324.223,243.71h-31.781
	c10.692,7.25,20.674,15.497,29.811,24.628h1.971V243.71L324.223,243.71z M378.408,360.233h-3.141l3.141,13.605V360.233z
	 M406.209,388.056h-25.544c1.097,8.931,1.604,17.924,1.519,26.921h24.813L406.209,388.056z M237,217.259
	c17.495,5.307,34.2,12.934,49.668,22.677h6.299v-25.138H237h-55.966v25.138h6.298C202.8,230.191,219.504,222.564,237,217.259
	L237,217.259z M237,227.508c-81.363,26.038-136.262,102.053-135.396,187.472h-6.011C94.719,326.235,152.216,247.448,237,221.207
	c84.784,26.241,142.279,105.028,141.408,193.771h-6.012C373.262,329.559,318.363,253.546,237,227.508L237,227.508z M409.885,85.786
	H395.66v19.103h-21.648V85.786h-14.225v19.103h-21.65V85.786h-14.224v32.063h85.973L409.885,85.786L409.885,85.786z M409.109,185.94
	l1.748-6.625H63.142l1.749,6.625H409.109L409.109,185.94z M212.353,145.771h49.293v-27.858H243.43v15.736h-12.862v-15.736h-18.215
	V145.771z M265.421,117.912h6.853v27.858h-6.853V117.912z M243.43,114.138h28.844V90.054h-33.387v12.011h4.543V114.138z
	 M238.887,175.516h33.387v-25.972h-33.387V175.516L238.887,175.516z M244.111,54.217h-14.224v19.103h-22.205V54.217h-15.557V86.28
	h89.748V54.217h-15.557v19.103h-22.207V54.217H244.111z M208.578,117.912h-6.852v27.858h6.852V117.912z M230.568,114.138h-28.842
	V90.054h33.386v12.011h-4.544V114.138z M235.112,175.516h-33.386v-25.972h33.386V175.516z M64.115,85.786h14.224v19.103h21.65
	V85.786h14.224v19.103h21.65V85.786h14.224v32.063H64.115V85.786L64.115,85.786z"/>
<path d="M242.148,272.353c-3.988-0.095-8.071,1.678-11.596,3.551c-0.462-1.099-1.635-1.858-2.827-1.83
	c-7.546-0.63-15.462-1.095-20.917,4.575c-6.864-0.634-13.943,1.499-19.316,5.816c-2.121,1.812-2.104,4.949-0.229,6.635
	c-0.627,4.976,2.027,9.614,6.243,11.471c-0.012,0.898-0.1,1.796-0.261,2.681c-4.564,2.094-5.189,7.748-1.7,10.571
	c-0.128,0.84,0.531,1.718,1.373,1.831c2.296-0.118,4.597-0.162,6.896-0.131c0.945,0.972,0.824,2.467-0.262,3.121
	c-4.659,2.266-9.752,3.638-14.919,4.019c0.493,2.118,1.927,3.999,3.84,5.034c-6.871,4.65-14.075,8.811-21.538,12.436
	c1.993,2.275,4.195,4.367,6.569,6.242c-6.827,7.678-6.645,19.834-16.439,23.139c1.776,1.835,3.601,3.623,5.474,5.359
	c-7.603,3.832-16.08,5.915-24.594,6.047c-3.236-0.025-5.534-2.871-5.05-5.753c0.302-4.731-3.147-8.658-7.452-9.035
	c-2.104-1.979-5.444-2.508-8.056-1.274c0.46,1.36,1.16,2.638,2.059,3.758c-0.345,1.106-0.501,2.273-0.458,3.433
	c0.045,1.166-1.094,2.23-2.255,2.106c-1.347-0.139-2.746,0.339-3.726,1.274c-2.178,0.246-4.231,1.452-5.507,3.235
	c1.337,1.569,3.188,2.692,5.197,3.154c-0.397,1.729,0.633,3.672,2.288,4.314c0.927,1.176,0.622,3.117-0.621,3.953
	c-0.836,0.29-1.525,0.979-1.816,1.813s-0.179,1.802,0.296,2.549c-1.144,1.625-1.825,3.573-1.944,5.558
	c2.435,0.914,5.36,0.356,7.289-1.39c2.16,1.008,4.883,0.671,6.732-0.833c0.467-0.228,1.08-0.104,1.423,0.285
	c0.343,0.39,0.385,1.014,0.098,1.447c-0.81,0.738-1.275,1.839-1.241,2.933c0.034,1.095,0.567,2.165,1.42,2.852
	c0.039,2.074,0.996,4.116,2.565,5.474c1.292-1.129,2.359-2.514,3.121-4.052c0.504,0.3,3.731,0.659,5.106-3.208
	c1.344,3.38,6.539,7.632,14.079,9.678c-0.461-1.063-2.527-4.264-2.27-6.996c1.208,1.899,6.141,5.012,8.904,5.051
	c-0.661-3.502-2.554-5.835-2.009-9.856c3.194,3.166,10.308,4.364,14.151,3.484c-1.804,2.3-2.63,5.34-2.239,8.236
	c1.54-1.832,3.417-3.379,5.507-4.543c0.489-0.398,1.257-0.403,1.75-0.009c0.493,0.394,0.657,1.145,0.375,1.708
	c-4.17,4.916-7.93,10.18-11.227,15.72c-3.273,3.761-8.818,5.368-13.596,3.938c-3.143-1.38-7.162-0.359-9.266,2.354
	c-4.282,1.333-7.718,5.091-8.661,9.478c2.04-0.163,4.103-0.048,6.112,0.343c2.014,0.386,3.555,2.453,3.35,4.493
	c-3.553,3.737-2.867,9.517,0.948,12.189c0.542-1.783,1.938-3.285,3.677-3.955c1.824,0.548,3.98-0.478,4.706-2.237
	c2.44-0.585,5.192,0.528,6.537,2.646c0.84,2.61,2.635,4.901,4.968,6.341c1.097-1.79,2.694-4.349,2.255-6.341
	c1.718-0.944,3.009-3.462,2.958-5.065c3.398,2.943,3.315,4.881,4.951,6.814c2.004-0.793,4.329-4.578,4.36-6.733
	c2.526-3.007,3.535-7.313,1.016-10.979c4.136-0.364,8.061-2.656,10.41-6.079c6.168,1.131,12.745-0.13,18.057-3.465
	c-2.904,0.397-5.966-1.381-7.059-4.102c4.697,1.563,10.16,0.583,14.021-2.516c-1.565-0.798-2.67-2.435-2.827-4.184
	c2.227-0.593,4.676-0.3,6.7,0.8c0.109-2.777-0.668-5.582-2.189-7.909c7.859,0.257,15.736,0.005,23.563-0.751
	c-0.859-1.896-2.794-3.26-4.869-3.431c4.38-3.169,10.182-4.289,15.427-2.975c-2.859-1.798-5.949-3.229-9.168-4.249
	c9-3.515,17.561-8.147,25.428-13.759c3.811-3.078,8.788-4.671,13.677-4.379l-9.478,9.984c-3.84,3.623-5.723,9.207-4.857,14.415
	c2.873,10.494,9.93,11.614,16.803,17.072c1.133,0.905,1.383,2.728,0.541,3.905c-1.183,3.256-3.22,6.197-5.853,8.448
	c-1.154,0.981-3.078,0.875-4.117-0.229c-5.763-4.189-12.95-3.077-16.587,2.386c-2.857,0.805-5.186,3.263-5.833,6.16
	c1.742,0.864,3.737,1.209,5.67,0.98c1.479,1.518,3.271,2.732,5.229,3.546c-0.291,0.929-0.441,1.902-0.441,2.876
	c-1.341,3.146-1.218,6.883,0.327,9.936c1.868-0.58,3.585-1.643,4.937-3.057c2.131-0.426,4.103-1.615,5.475-3.301
	c0.576,0.868,1.354,1.6,2.255,2.125c0.174,3.469,1.959,6.823,4.737,8.906c2.392-1.595,4.111-4.161,4.676-6.979
	c1.699-1.67,3.045-3.7,3.922-5.915c2.629,1.473,4.148,4.699,3.611,7.664c6.77-3.452,5.063-7.334,7.123-12.713
	c0.947-1.549,0.513-3.79-0.946-4.869c-0.778-2.161,1.313-3.987,3.138-3.121c2.305,1.146,4.467,2.576,6.422,4.249
	c1.27-3.146,0.871-6.913-1.029-9.723c0.883-0.376,1.957-0.255,2.732,0.308c0.775,0.563,1.225,1.547,1.141,2.502
	c1.688-2.878,1.293-6.825-0.932-9.313c-0.513-0.568-0.389-1.582,0.245-2.01c2.478-2.096,2.312-5.784,0-7.565
	c-6.173,2.274-7.319-9.137-5.356-10.428c4.555,6.944,13.592,14.306,21.879,14.873c5.979,1.008,11.295,5.318,13.514,10.964
	c1.004,3.211-1.827,6.031-4.705,5.409c-6.148-1.66-12.139,1.219-14.35,6.667c-2.556,1.603-3.195,4.894-1.649,7.156
	c1.035-0.812,2.442-1.127,3.726-0.833c1.848,1.054,4.25,1.054,6.096,0c-0.478,2.334,0.384,4.897,2.174,6.472
	c-1.102,1.868-1.158,4.307-0.146,6.226c2.116-0.999,4.012-2.465,5.508-4.265c2.638-1.053,4.996-2.792,6.781-5.001
	c-0.152,2.55,1.938,5.031,4.478,5.312c0.628,1.657,2.702,2.598,4.362,1.978c-0.412-1.129-0.586-2.347-0.506-3.546
	c1.528-0.977,3.281-6.578,2.42-8.174c2.453,0.724,2.582,2.479,4.574,4.333c2.127-1.048,2.991-5.36,1.834-6.987
	c2.62-7.938,2.914-11.368-1.617-19.933c3.879-0.072,7.35-3.639,8.101-7.444c-2.519,0.102-5.06-0.438-7.32-1.554
	c2.386-1.501,3.812-4.399,3.546-7.206c-1.559,0.657-4.918,0.693-5.55-0.361c0.06-1.613,0.774-3.943-0.067-5.704
	c-7.556,1.474-12.297-0.472-15.435-4.386c-1.849-2.382-2.694-5.516-2.3-8.504c4.15,1.221,8.857,0.372,12.32-2.223
	c-4.529,0.305-6.178-4.501-9.869-5.67c1.332-1.821,3.42-3.07,5.654-3.382c-1.543-1.632-3.623-2.75-5.834-3.138
	c0.069-1.021,0.734-1.98,1.668-2.403c0.933-0.423,2.092-0.292,2.906,0.328c0.242-1.336-0.566-2.788-1.83-3.284
	c-2.619-1.303-3.615-4.379-2.435-6.766c18.368-1.448,22.528-16.91,12.714-28.22c-8.118-6.928-17.732-12.092-27.993-15.032
	c-0.739-2.693-2.998-4.912-5.703-5.605c-7.144-3.112-5.411-9.834-0.604-12.239c-1.502-0.583-3.223-0.578-4.723,0.018
	c-1.248-4.604-4.832-8.543-7.791-10.943c4.266,2.38,9.965-4.087,12.072-3.73c-6.287-4.737-13.398-3.69-18.792-9.689
	c-4.019-3.969-10.099-3.168-14.087-2.271c-3.321-1.955-7.281-2.804-11.111-2.385c-13.238,2.135-15.527,16.52-9.25,25.05
	c7.782,10.111,19.25,17.321,31.734,19.951c-3.482,1.749-5.989,5.314-6.454,9.184c4.065-1.769,8.662-2.298,13.024-1.502
	c0.619,6.149,5.526,10.718,11.177,10.964c-1.71-1.766-2.527-4.354-2.142-6.781c0.213-1.294,1.521-1.989,2.582-1.389
	c2.459,0.93,5.305,0.777,7.648-0.408c7.964,3.817,19.527,8.399,24.861,14.229c5.328,11.123-10.493,11.767-19.401,6.881
	c-23.862-9.292-47.603-11.147-72.329-5.98c-1.027,0.099-2.092-0.336-2.754-1.127c-0.664-0.791-0.906-1.915-0.629-2.909
	c2.206,1.049,4.722,1.436,7.141,1.095c-3.953-4.661-5.638-11.162-4.443-17.157c3.275,2.257,7.781,2.594,11.356,0.85
	c-6.364-6.112-10.03-14.938-9.87-23.759c2.609,0.17,5.204-1.728,5.834-4.266c-6.354-3.048-11.205-9.062-12.845-15.916
	c-1.512-1.188-2.485-1.804-4.026-2.671C245.624,279.646,243.87,274.395,242.148,272.353L242.148,272.353z M277.453,288.453
	c1.598,0,3.186,0.669,4.299,1.814c-0.825,3.372-0.316,7.848-3.416,9.559c3.221,1.254,7.014,0.924,9.969-0.865
	c1.935,5.628,6.272,10.385,11.7,12.827c-1.059-1.782-2.591-8.314-2.448-10.734c0.932,5.151,14.201,5.334,15.228,8.888
	c-3.447,1.352-7.12,3.323-7.614,7.026c-12.063-2.659-26.307-10.501-31.427-17.374C268.622,292.72,272.572,288.439,277.453,288.453
	L277.453,288.453z M206.287,302.262c0.997,4.276-5.253,4.164-7.436,3.021c0.056-1.092,0.247-2.356,0.18-3.293
	C201.142,300.59,205.153,299.545,206.287,302.262z"/>
<path fill="#FD0" d="M285.242,286.528c4.701-5.404,8.859-2.976,12.183-0.917c5.087,4.174,10.517,7.21,16.604,8.086
	c-4.438,1.935-8.9,1.716-16.032-1.134c7.392,5.888,7.828,8.713,10.965,12.455c-6.003-2.564-11.655-6.058-15.526-10.943
	c1.537,3.602,1.521,6.858,1.834,10.188c-3.881-5.071-5.345-9.816-6.146-14.825c-0.482,5.848-3.193,6.272-5.443,7.763
	C285.529,293.434,283.229,289.052,285.242,286.528z M282.186,285.578c0.604-1.222,0.779-1.342,1.58-2.051
	c-7.936-3.522-20.947-0.751-17.596,14.443c4.861,14.159,21.547,19.589,33.93,24.554c0.707-0.697,1.717-2.214,3.029-2.71
	c-13.184-5.339-27.422-8.942-33.47-22.447C265.219,285.095,277.867,283.301,282.186,285.578z M308.188,322.277
	c0.502,1.231,1.338,2.351,2.455,3.377c-2.437,0.555-3.381,2.119-4.604,3.685c-3.807,0.47-4.534-1.083-8.137-0.69
	C300.327,325.51,304.012,322.532,308.188,322.277L308.188,322.277z M312.125,313.305c-0.857,6.008,5.809,8.434,8.88,12.118
	c-2.422-0.35-3.721-0.533-5.733-0.235C309.875,323.446,307.514,316.886,312.125,313.305z M323,327.573
	c-11.898-2.128-16.102,2.62-13.225,9.024c1.339-1.511,1.145-4.491,3.857-4.595C317.514,331.852,319.721,332.029,323,327.573z
	 M283.704,384.491c-3.313,3.591-6.349,6.852-10.981,12.093c-3.354,5.043-8.009,10.979,1.65,19.232
	c4.867,3.347,10.268,6.326,13.172,10.981c-2.412,5.067-5.387,10.664-11.21,15.391c-8.821-4.647-17.265-6.426-16.326,1.57
	c0.163,1.83,1.228,2.924,2.351,2.348c2.912-1.495,5.857-2.191,7.619-0.354c-1.612,0.399-4.346,0.836-5.653,2.357
	c-1.255,1.458-2.177,2.633,0.735,5.683c6.991,6.527,4.779-3.538,13.234-5.899c-0.814,3.536-6.329,8.84,0.588,10.164
	c5.715,1.137,3.303-4.826,5.442-7.385c5.284,2.612,6.12,0.298,9.543,0.571c3.161-3.346,0.004-5.697-0.947-7.777
	c-2.962-2.817-4.5,4.395-8.399,4.198c4.838-11.137,11.402-18.194,20.052-20.327c1.151-1.557,0.343-3.102-0.539-4.657
	c-4.409-3.767-4.149-8.167-3.448-12.615C301.984,402.455,293.053,387.494,283.704,384.491z M297.038,406.682
	c-1.7,10.218,0.744,14.096,4.168,17.141C291.875,420.705,288.706,415.219,297.038,406.682z M208.174,410.865
	c-1.76,2.599-4.509,5.508-6.949,7.768c3.796,0,8.875-0.73,13.815-0.076C213.615,415.473,211.33,412.907,208.174,410.865z
	 M198.531,420.608c3.151,1.407,7.405,1.728,11.194,2.815c-4.298,0.792-8.515,2.369-15.37,0.365L198.531,420.608z M165.202,379.297
	c-1.496,5.197-1.229,9.871-0.768,15.364c-7.281,1.156-14.599,1.971-25.21-1.313c-0.939-0.05-1.392,0.138-1.765,0.824
	c4.652,2.252,8.896,9.414,6.111,13.509c-1.724-1.838-1.973-4.823-5.435-6.702c-1.695,1.417-1.984,2.953-6.449,1.602
	c-5.076-3.479-1.793-5.813-2.615-9.292c-3.663,1.331-7.324,6.776-10.986,3.296c-3.418-6.998,3.402-6.767,6.042-9.339
	c-3.229-0.957-8.787,2.128-8.515-5.022c1.973-7.131,7.141-0.252,10.712,0.354c0.742-4.317-9.222-4.271-1.923-9.611
	c4.89-2.236,3.763,3.573,5.429,6.915c1.667,3.34,2.311,7.407,7.755,6.542C147.314,385.576,157.272,383.139,165.202,379.297
	L165.202,379.297z M293.014,440.719c-0.566-1.133,2.226-5.608,4.418-5.456c2.402,0.167,6.756,4.806,6.756,4.806
	C300.463,439.615,296.738,439.144,293.014,440.719z M299.51,433.573c1.271-0.937,2.951-2.896,4.547-3.508
	c2.76,1.751,2.34,2.974,3.248,4.417C305.039,433.401,302.123,433.617,299.51,433.573z M262.854,454.485
	c0.773,1.525,1.922,2.244,3.448,3.268c-1.644,0.616-2.776,1.261-3.79,2.76C261.927,458.151,262.188,456.72,262.854,454.485z
	 M275.861,459.225c0.984,0.782,2.476,1.596,4.369,1.618c-1.061,1.687-1.16,2.375-1.238,4.44
	C277.578,463.723,275.271,461.425,275.861,459.225z M258.105,441.811c-0.34,1.827-0.674,1.923,0.117,3.75
	c-2.046-0.951-2.718-0.988-4.638-0.691C255.396,442.19,255.882,442.465,258.105,441.811z M289.999,454.307
	c0.804-0.962,4.26-1.441,4.396-0.945c-0.117,1.814-0.512,3.604-2.127,5.292C291.041,457.205,290.098,455.757,289.999,454.307z
	 M326.426,328.492c-0.088,0.84-0.158,0.879-1.422,3.22c9.465,4.163,14.793,6.544,22.463,12.174
	c12.84,11.259-1.203,22.225-15.156,16.487c-11.896-5.019-37.865-15.556-76.647-8.186c0.769,1.904,1.426,2.278,2.879,4.689
	c-4.509,0.196-8.39-2.23-11.119-4.036c-1.044,2.468,0.155,4.347,0.679,6.798c-4.056-0.083-7.865-2.271-9.776-5.688
	c-4.056,9.73-10.454,16.895-19.512,21.146v-6.046c-7.615,5.308-10.979,11.688-12.909,18.416c-3.356-1.362-5.442-3.819-7.142-6.603
	c-0.325,2.629-1.938,6.104,0.817,14.836c-3.324,0.708-7.325,0.542-10.41-0.18c-1.912,9.457-4.534,13.799-12.044,20.214
	c-7.51,6.415-7.043,13.825-19.103,19.903c-5.469,1.063-15.445-4.345-16.407,3.202c-0.426,2.471,1.477,4.18,3.157,2.854
	c2.718-2.146,6.966-2.415,9.476-1.48c-2.315,1.331-7.102,0.938-8.797,4.233c-0.835,1.624-1.734,2.95,0.283,6.028
	c9.047,5.211,6.4-6.729,14.56-9.347c1.258,4.561-6.965,7.362,0.556,11.716c4.789,1.603,4.813-4.946,6.585-8.515
	c2.575,1.255,2.64,5.558,5.769,4.117c3.731-0.764,2.304-5.133,2.206-8.791c4.859-1.931,9.83-3.339,14.005-8.234
	c3.072,0.474,6.094,1.03,9.625,0.816c-3.089-2.153-5.169-4.568-6.128-6.486c-5.254,3.392-10.317,7.386-15.279,7.582
	c15.828-10.699,34.93-24.734,34.595-40.934c1.509,2.931,2.239,5.861,1.373,8.792c14.528,0.529,25.185-7.506,36.54-14.004
	c-10.902,10.83-23.406,17.503-37.161,16.21c-0.682,1.908-1.888,3.885-3.66,6.03c7.336,1.012,15.386,1.528,22.96,1.111
	c-1.494-1.988-2.295-4.139-1.651-6.603c3.205,0.032,6.419,0.39,9.625,1.373c0,0-2.511-4.182-3.709-4.51
	c2.684-1.104,18.926-9.361,23.482-13.139c17.647-10.308,29.6-7.637,35.443,1.716c20.998,40.982,22.912,28.265,42.635,39.136
	c4.444,7.576,9.451,15.417-2.254,15.54c-12.568-0.48-12.513,2.479-11.26,5.768c5.489,4.476,4.778-3.509,11.814-1.928
	c-2.338,2.346-9.547,3.953-3.481,9.281c6.433,5.374,6.148-6.837,10.9-9.82c0.175,3.973-2.923,10.287,4.118,9.33
	c3.619-0.791,2.434-4.774,2.467-7.958c1.107-2.188,3.982-1.219,7.615-0.882c1.664-10.875-2.332-12.419-2.844-18.955
	c2.273,0.65,6.344-0.723,7.433-3.073c-4.28-1.264-6.733-1.288-7.246-4.559c2.187-0.18,3.321-2.96,3.792-4.174
	c-1.371-0.216-3.001,1.013-5.246-0.291c0.271-2.284,0.354-3.142,0.354-4.604c-16.279,2.864-19.11-9.499-19.232-22.255
	c0.76-0.155,1.965,0.136,4.396,1.65c-1.562-4.736-4.123-6.053-5.476-8.48c2.992-1.032,4.29,0.664,5.638,0.931
	c-1.988-4.854-4.808-6.131-7.305-7.843c0.572,15.274-3.13,35.252,15.77,38.76c2.543,0.108,4.563,0.948,5.442,4.936
	c-1.069,5.572-0.897,11.183,0.506,17.305c-5.013-4.345-6.207-9.502-3.317-15.393c0.105-1.901-1.305-2.476-2.744-3.022
	c-16.956-5.588-16.627-12.73-17.861-20.604c-1.275-8.142,1.839-17.849-2.373-27.73c-0.474-1.11-0.049-2.146-0.059-2.376
	c4.084,6.581,8.093,8.233,11.469,7.066c-2.495-4.301-5.402-6.946-8.188-9.396c33.453,3.265,27.125-18.563,18.662-24.902
	C341.828,335.015,335.415,332.143,326.426,328.492L326.426,328.492z M288.917,370.406c8.819-0.208,17.088,12.12,17.233,25.532
	c-13.008-23.07-10.646-18.002-18.101-25.482C288.342,370.427,288.626,370.413,288.917,370.406L288.917,370.406z M238.012,376.469
	c6.1,8.101,0.348,12.544-5.159,15.484C235.911,386.733,238.102,383.969,238.012,376.469z M245.465,376.746
	c3.293,2.225,3.389,11.517-3.365,12.287C244.467,385.37,245.639,380.409,245.465,376.746z M230.487,380.217
	c4.202,6.788-0.232,12.42-6.193,14.835C224.111,394.131,230.103,386.716,230.487,380.217z M144.124,396.95
	c2.655,0.632,5.07,0.827,8.045,1.142c-0.521,2.592-0.239,5.36,0.437,9.149C148.188,404.036,146.029,400.302,144.124,396.95z
	 M154.334,398.027c3.088,0.045,6.233-0.021,9.536-0.4c-0.97,1.302-2.539,2.69-3.022,4.943
	C158.074,401.497,155.904,400.303,154.334,398.027z M169.158,396.979c-1.997,0.353-6.223,6.544-5.792,7.2
	c2.247,0.356,4.015-0.144,6.563-0.688C170.289,401.401,170.071,399.066,169.158,396.979z M214.97,354.22
	c-3.103,1.294-4.75,4.488-5.955,7.679C214.373,359.453,213.699,359.62,214.97,354.22z M321.634,448.4
	c0.733,1.719,2.056,2.849,3.497,3.857l-5.47,0.807C319.684,450.874,320.417,449.395,321.634,448.4z M331.05,458.444
	c1.347,1.166,4.513,2.068,4.036,2.242c-0.988,0.359-4.338,3.228-4.036,3.228C330.848,462.023,330.563,460.105,331.05,458.444
	L331.05,458.444z M346.027,458.623c1.408,0.156,2.592-0.136,3.767-0.447l-1.076,4.215
	C347.286,461.348,346.266,460.142,346.027,458.623z M353.503,450.26c0.416-1.059,2.172-0.996,3.709-1.115
	c0.458,1.491,0.829,2.991-0.608,4.697C355.654,452.522,354.641,451.298,353.503,450.26z M140.035,437.668
	c-0.351,1.71,0.082,2.444,0.447,3.918c-1.614-0.369-2.394-0.04-4.008,0.059C137.537,439.493,137.781,438.387,140.035,437.668
	L140.035,437.668z M143.65,450.969c0.777,1.495,1.675,1.677,3.169,2.454c-1.276,0.538-2.612,1.438-4.126,2.689
	C142.446,454.115,142.474,452.019,143.65,450.969L143.65,450.969z M159.374,454.38c1.734,0.417,2.633,1.076,4.606,0.775
	l-1.588,3.859C160.733,457.309,159.599,456.084,159.374,454.38z M171.451,450.882c1.669,0.498,1.979,1.115,4.18-0.906
	c0.275,2.221-0.032,3.23-1.667,5.212L171.451,450.882z M251.477,326.338c0.424,5.805,0.121,10.042,4.608,16.412
	C248.042,342.941,249.02,331.069,251.477,326.338z M246.704,336.211c-8.125,4.481-10.148,11.983-2.642,18.742
	c-0.295-2.781-0.765-5.57,1.918-7.96c0.801,2.488,1.854,4.648,5.317,4.161C248.355,345.331,247.686,340.781,246.704,336.211z
	 M194.992,301.007l2.575,0.269c-0.095,1.573-0.065,3.253-0.526,4.093l-2.237-0.254L194.992,301.007z M212.887,283.951
	c-5.025-1.424-3.861,3.396-1.501,3.661l1.164-1.344C212.286,285.6,212.442,284.549,212.887,283.951z M216.772,284.942
	c0.018,0.956-0.098,2.298-2.067,2.171c-0.432,0.492-1.365,1.381-2.617,3.104c4.924,0.946,6.428-2.644,6.634-4.654L216.772,284.942z
	 M121.618,371.69c1.001-1.396,2.003-1.786,3.005-2.312c-1.471-1.051-3.162-1.224-4.854-1.387L121.618,371.69z M114.517,378.843
	c-0.401,1.3-1.24,2.093-0.783,3.806c-1.965-0.303-2.571-0.874-3.41-2.028C111.791,379.337,112.762,379.304,114.517,378.843
	L114.517,378.843z M115.583,395.829c0.846,2.104,1.704,2.248,2.325,2.999c-1.42,0.537-2.285,1.47-4.547,0.957
	C113.536,397.386,114.311,397.134,115.583,395.829L115.583,395.829z M128.724,403.796c0.93,1.229,1.23,1.47,3.492,2.033
	c-1.042,1.083-1.807,2.783-3.219,2.889C128.358,406.944,127.643,405.567,128.724,403.796z M240.693,274.651
	c-6.045,0.905-9.937,4.19-13.318,8.056c0.738-2.165,1.217-3.881-0.114-6.046c-5.579,0.437-11.789,0.074-16.295,2.348
	c-1.504,0.896-1.174,1.609-0.667,2.505c1.856-0.348,3.271-0.397,4.615,0.1c0.562,1.657,2.778,2.519,4.85,1.937
	c2.9,7.085-3.23,11.098-8.562,8.438c-0.878,0.6-1.894,1.021-3.169,2.269c0.091-2.207,0.712-3.377,1.617-4.564
	c-2.453-1.131-3.101-4.446-2.453-8.827c-8.978,0.389-13.75,1.624-19.025,6.548c-0.532,0.89-0.874,2.666,1.471,2.009
	c1.829-1.571,3.645-2.673,5.474-3.349c0.796,0.313,2.355-0.741,1.798,2.01c-7.261,1.688-7.738,6.392-3.187,11.26
	c2.313,0.517,5.434,0.641,6.585,0.098c1.056-0.499,0.6-1.075,0.588-2.451c17.872,2.106,9.287,17.492,2.615,14.379
	c-0.244-1.323-0.57-1.67,1.421-1.943c1.752,0.581,1.035-1.952,1.046-2.843c-5.617,2.758-9.201-0.044-12.942-0.296
	c-1.32,3.178-1.345,7.475,1.127,9.242c1.607-0.617,3.096-0.325,5.884-0.287c9.439-0.719,15.604-3.822,16.456-13.383
	c0.531,1.797,1.064,3.604,1.013,6.275c3.996-1.151,7.944-6.974,6.602-17.583c4.168,2.134,7.99,13.129-0.555,16.798
	c-8.545,3.669-10.478,10.437-18.924,10.522c-2.419,4.771-7.365,7.54-13.661,9.625c2.432,3.739,8.317,0.749,10.181,5.147
	c-19.387-0.625-17.988,7.114-25.411,9.967c6.752,1.847,12.188-2.614,17.469-7.827c1.186,3.695-0.506,7.384-2.239,11.079
	c4.027-0.325,7.527-4.018,10.965-8.17c-2.171,2.74-3.95,6.624-4.379,11.569c-4.579,1.354-8.525,1.743-12.207,0.85l0.604-5.425
	c-19.472,6.748-11.89,20.635-22.977,27.02c2.023,1.229,4.353,1.577,8.18,0.526c-2.933,7.167-4.324,13.295-2.852,20.462l3.514-4.755
	c-0.417,6.339,1.495,12.615,1.258,18.955c3.017-3.759,2.565-10.009,2.255-15.441c4.5,3.013,5.183,9.841,4.756,17.778l5.376-12.189
	c-6.601-2.71-9.455-8.597-8.89-17.37l-3.726,0.212l2.826-11.37c-1.835,0.482-3.67,1.018-5.506,0.617
	c4.52-16.452,13.205-15.204,17.24-16.16c-4.016,3.93-9.776,7.261-11.766,12.713c3.02-1.083,6.049-1.773,9.07-4.314
	c-4.369,4.896-5.423,9.404-5.458,13.76c3.91-4.487,6.759-4.102,11.782-10.131c-3.74,7.56-7.839,13.067-13.221,14.607
	c0.466,3.97,1.905,6.556,4.543,7.516c0.769-9.339,6.959-12.798,12.027-16.226c-8.345,9.76-11.42,16.979-8.252,22.828l2.01-7.435
	c0.724,2.521,3.285,4.652,6.749,6.078c0.396-6.753-2.523-12.117,2.844-19.102c1.551,4.374,2.786,6.57,4.886,9.297
	c2.21-8.208,12.863-9.334,13.433-21.292c-1.876,1.21-6.33,3.452-9.919,11.995c-2.122-13.26,2.775-17.881,7.647-22.534
	l-15.638,10.524c-1.25-11.153,4.287-18.478,13.204-23.906c-1.126,4.238-5.274,10.131-9.625,16.128
	c7.813-4.167,13.822-10.131,18.351-17.582c0.925,3.279-1.533,8.427-2.565,13.105c6.747-2.786,10.432-6.668,7.73-16.13
	c-1.012-5.768,2.627-8.146,4.591-11.747c-0.416,3.927-2.033,7.513-0.572,11.978c3.825-11.611,11.25-15.063,14.333-23.628
	c6.389,10.161,11.229,18.067,17.256,17.697c-6.801-10.316-4.309-16.356-8.188-19.298c-6.369-4.832-8.388-7.73-8.727-13.399
	c4.892,8.581,11.158,9.571,14.771,8.285c-9.098-6.799-8.508-13.157-12.975-15.671c-3.506,3.89-6.549,5.898-9.756,6.504
	c3.436-0.659,1.428-10.594,0.229-11.324c-1.565-0.956-7.618,5.957-7.942,5.262c3.292-3.21,2.291-6.416,11.422-9.625
	c0.289,3.72,0.771,7.44-0.049,11.16C245.908,286.417,241.966,276.59,240.693,274.651L240.693,274.651z M234.647,300.289
	c7.234,6.965,6.63,10.207-3.236,18.04C234.639,312.557,236.912,306.673,234.647,300.289z M226.329,310.469
	c0.181,9.553-5.852,21.261-19.887,25.653c0.323-9.091,5.265-15.056,10.704-18.17c-1.789,2.622-4.756,6.782-4.167,10.523
	C218.786,326.257,222.739,317.021,226.329,310.469z M245.836,320.366c-7.372,5.076-6.979,12.19-6.154,16.475
	C244.824,332.869,248.614,327.02,245.836,320.366z M239.048,322.27c-19.004,23.408-6.379,33.867-15.444,39.382
	c1.275-5.075,0.153-8.353-0.596-11.91c-2.107,4.604-8.565,5.063-0.396,19.452c11.772-9.516,14.449-19.181,13.888-29.686
	C236.164,333.216,237.32,328.296,239.048,322.27z"/>
</svg>
